
<svg width="100%"  version="1.1">
 <g transform="translate(0,-347)">
  <g transform="matrix(.26458 0 0 .26458 -11.339 59.342)" aria-label="HalcyonWeave">
   <g transform="translate(59.062 1094.7)" aria-label="HalcyonWeave">
    <path d="m25.972 7.0949h8.2773v59.136h-8.2773v-27.307h-28.928v27.307h-8.2773v-59.136h8.2773v24.661h28.928z"/>
    <path d="m63.44 60.514q2.816 0 4.9493-0.08533 2.2187-0.17067 3.6693-0.512v-13.227q-0.85333-0.42667-2.816-0.68267-1.8773-0.34133-4.608-0.34133-1.792 0-3.84 0.256-1.9627 0.256-3.6693 1.1093-1.6213 0.768-2.7307 2.2187-1.1093 1.3653-1.1093 3.6693 0 4.2667 2.7307 5.9733 2.7307 1.6213 7.424 1.6213zm-0.68267-39.765q4.7787 0 8.0213 1.28 3.328 1.1947 5.2907 3.4987 2.048 2.2187 2.9013 5.376 0.85333 3.072 0.85333 6.8267v27.733q-1.024 0.17067-2.9013 0.512-1.792 0.256-4.096 0.512t-5.0347 0.42667q-2.6453 0.256-5.2907 0.256-3.7547 0-6.912-0.768-3.1573-0.768-5.4613-2.3893-2.304-1.7067-3.584-4.4373-1.28-2.7307-1.28-6.5707 0-3.6693 1.4507-6.3147 1.536-2.6453 4.096-4.2667 2.56-1.6213 5.9733-2.3893 3.4133-0.768 7.168-0.768 1.1947 0 2.4747 0.17067 1.28 0.08533 2.3893 0.34133 1.1947 0.17067 2.048 0.34133 0.85333 0.17067 1.1947 0.256v-2.2187q0-1.9627-0.42667-3.84-0.42667-1.9627-1.536-3.4133-1.1093-1.536-3.072-2.3893-1.8773-0.93867-4.9493-0.93867-3.9253 0-6.912 0.59733-2.9013 0.512-4.352 1.1093l-0.93867-6.5707q1.536-0.68267 5.12-1.28 3.584-0.68267 7.7653-0.68267z"/>
    <path d="m106.23 67.084q-7.3387-0.17067-10.411-3.1573-3.072-2.9867-3.072-9.3013v-53.248l7.936-1.3653v53.333q0 1.9627 0.34133 3.2427t1.1093 2.048 2.048 1.1947q1.28 0.34133 3.1573 0.59733z"/>
    <path d="m135.54 67.255q-5.376 0-9.472-1.7067-4.0107-1.7067-6.8267-4.7787-2.7307-3.072-4.096-7.2533-1.3653-4.2667-1.3653-9.3867t1.4507-9.3867q1.536-4.2667 4.2667-7.3387 2.7307-3.1573 6.656-4.864 4.0107-1.792 8.8747-1.792 2.9867 0 5.9733 0.512t5.7173 1.6213l-1.792 6.7413q-1.792-0.85333-4.1813-1.3653-2.304-0.512-4.9493-0.512-6.656 0-10.24 4.1813-3.4987 4.1813-3.4987 12.203 0 3.584 0.768 6.5707 0.85333 2.9867 2.56 5.12 1.792 2.1333 4.5227 3.328 2.7307 1.1093 6.656 1.1093 3.1573 0 5.7173-0.59733t4.0107-1.28l1.1093 6.656q-0.68267 0.42667-1.9627 0.85333-1.28 0.34133-2.9013 0.59733-1.6213 0.34133-3.4987 0.512-1.792 0.256-3.4987 0.256z"/>
    <path d="m151.72 74.508q0.93867 0.42667 2.3893 0.768 1.536 0.42667 2.9867 0.42667 4.6933 0 7.3387-2.1333 2.6453-2.048 4.7787-6.7413-5.376-10.24-10.069-21.675-4.608-11.52-7.68-23.296h8.5333q0.93867 3.84 2.2187 8.2773 1.3653 4.4373 2.9867 9.1307 1.6213 4.6933 3.4987 9.3867 1.8773 4.6933 3.9253 9.0453 3.2427-8.96 5.632-17.749 2.3893-8.7893 4.5227-18.091h8.192q-3.072 12.544-6.8267 24.149-3.7547 11.52-8.1067 21.589-1.7067 3.84-3.584 6.5707-1.792 2.816-4.0107 4.608-2.2187 1.792-5.0347 2.6453-2.7307 0.85333-6.2293 0.85333-0.93866 0-1.9627-0.17067-1.024-0.08533-2.048-0.34133-0.93867-0.17067-1.792-0.42667-0.768-0.256-1.1093-0.42667z"/>
    <path d="m238.42 44.044q0 5.2907-1.536 9.5573t-4.352 7.3387q-2.7307 3.072-6.5707 4.7787-3.84 1.6213-8.3627 1.6213t-8.3627-1.6213q-3.84-1.7067-6.656-4.7787-2.7307-3.072-4.2667-7.3387t-1.536-9.5573q0-5.2053 1.536-9.472 1.536-4.352 4.2667-7.424 2.816-3.072 6.656-4.6933 3.84-1.7067 8.3627-1.7067t8.3627 1.7067q3.84 1.6213 6.5707 4.6933 2.816 3.072 4.352 7.424 1.536 4.2667 1.536 9.472zm-8.2773 0q0-7.5093-3.4133-11.861-3.328-4.4373-9.1307-4.4373t-9.216 4.4373q-3.328 4.352-3.328 11.861 0 7.5093 3.328 11.947 3.4133 4.352 9.216 4.352t9.1307-4.352q3.4133-4.4373 3.4133-11.947z"/>
    <path d="m249.59 23.138q2.7307-0.68267 7.2533-1.4507t10.411-0.768q5.2907 0 8.7893 1.536 3.4987 1.4507 5.5467 4.1813 2.1333 2.6453 2.9867 6.4 0.85334 3.7547 0.85334 8.2773v24.917h-7.936v-23.211q0-4.096-0.59734-6.9973-0.512-2.9013-1.792-4.6933-1.28-1.792-3.4133-2.56-2.1333-0.85333-5.2907-0.85333-1.28 0-2.6453 0.08533t-2.6453 0.256q-1.1947 0.08533-2.2187 0.256-0.93867 0.17067-1.3653 0.256v37.461h-7.936z"/>
    <path d="m331.44 26.124q-3.584 11.435-7.2533 21.163-3.6693 9.728-7.3387 18.944h-8.2773q-4.5227-13.056-8.0213-27.563-3.4133-14.507-6.4-31.573h8.704q1.1947 6.656 2.4747 13.312 1.28 6.656 2.6453 12.971 1.3653 6.2293 2.7307 11.947 1.3653 5.7173 2.816 10.581 3.4133-8.96 7.2533-19.627 3.84-10.752 7.168-22.187h7.168q3.328 11.435 7.2533 22.187 3.9253 10.667 7.3387 19.627 1.3653-4.7787 2.7307-10.496 1.3653-5.7173 2.6453-11.947 1.3653-6.3147 2.6453-12.971 1.28-6.7413 2.4747-13.397h8.448q-3.072 17.067-6.5707 31.573-3.4133 14.507-7.8507 27.563h-8.2773q-3.7547-9.216-7.3387-18.944-3.584-9.728-7.168-21.163z"/>
    <path d="m373.61 44.13q0-5.888 1.7067-10.24 1.7067-4.4373 4.5227-7.3387 2.816-2.9013 6.4853-4.352 3.6693-1.4507 7.5093-1.4507 8.96 0 13.739 5.632 4.7787 5.5467 4.7787 16.981 0 0.512 0 1.3653 0 0.768-0.0853 1.4507h-30.379q0.512 6.912 4.0107 10.496t10.923 3.584q4.1813 0 6.9973-0.68267 2.9013-0.768 4.352-1.4507l1.1093 6.656q-1.4507 0.768-5.12 1.6213-3.584 0.85333-8.192 0.85333-5.8027 0-10.069-1.7067-4.1813-1.792-6.912-4.864-2.7307-3.072-4.096-7.2533-1.28-4.2667-1.28-9.3013zm30.464-4.352q0.0853-5.376-2.7307-8.7893-2.7307-3.4987-7.5947-3.4987-2.7307 0-4.864 1.1093-2.048 1.024-3.4987 2.7307-1.4507 1.7067-2.304 3.9253-0.768 2.2187-1.024 4.5227z"/>
    <path d="m438.77 60.514q2.816 0 4.9493-0.08533 2.2187-0.17067 3.6693-0.512v-13.227q-0.85334-0.42667-2.816-0.68267-1.8773-0.34133-4.608-0.34133-1.792 0-3.84 0.256-1.9627 0.256-3.6693 1.1093-1.6213 0.768-2.7307 2.2187-1.1093 1.3653-1.1093 3.6693 0 4.2667 2.7307 5.9733 2.7307 1.6213 7.424 1.6213zm-0.68267-39.765q4.7787 0 8.0213 1.28 3.328 1.1947 5.2907 3.4987 2.048 2.2187 2.9013 5.376 0.85333 3.072 0.85333 6.8267v27.733q-1.024 0.17067-2.9013 0.512-1.792 0.256-4.096 0.512t-5.0347 0.42667q-2.6453 0.256-5.2907 0.256-3.7547 0-6.912-0.768t-5.4613-2.3893q-2.304-1.7067-3.584-4.4373-1.28-2.7307-1.28-6.5707 0-3.6693 1.4507-6.3147 1.536-2.6453 4.096-4.2667 2.56-1.6213 5.9733-2.3893 3.4133-0.768 7.168-0.768 1.1947 0 2.4747 0.17067 1.28 0.08533 2.3893 0.34133 1.1947 0.17067 2.048 0.34133t1.1947 0.256v-2.2187q0-1.9627-0.42667-3.84-0.42667-1.9627-1.536-3.4133-1.1093-1.536-3.072-2.3893-1.8773-0.93867-4.9493-0.93867-3.9253 0-6.912 0.59733-2.9013 0.512-4.352 1.1093l-0.93866-6.5707q1.536-0.68267 5.12-1.28 3.584-0.68267 7.7653-0.68267z"/>
    <path d="m501.57 21.858q-3.328 12.459-7.8507 23.893-4.4373 11.435-8.6187 20.48h-7.168q-4.1813-9.0453-8.704-20.48-4.4373-11.435-7.7653-23.893h8.5333q1.024 4.1813 2.3893 8.96 1.4507 4.6933 2.9867 9.3867 1.6213 4.608 3.2427 8.96 1.6213 4.352 3.072 7.7653 1.4507-3.4133 3.072-7.7653 1.6213-4.352 3.1573-8.96 1.6213-4.6933 2.9867-9.3867 1.4507-4.7787 2.4747-8.96z"/>
    <path d="m506.11 44.13q0-5.888 1.7067-10.24 1.7067-4.4373 4.5227-7.3387 2.816-2.9013 6.4853-4.352 3.6693-1.4507 7.5093-1.4507 8.96 0 13.739 5.632 4.7787 5.5467 4.7787 16.981 0 0.512 0 1.3653 0 0.768-0.0853 1.4507h-30.379q0.512 6.912 4.0107 10.496t10.923 3.584q4.1813 0 6.9973-0.68267 2.9013-0.768 4.352-1.4507l1.1093 6.656q-1.4507 0.768-5.12 1.6213-3.584 0.85333-8.192 0.85333-5.8027 0-10.069-1.7067-4.1813-1.792-6.912-4.864t-4.096-7.2533q-1.28-4.2667-1.28-9.3013zm30.464-4.352q0.0853-5.376-2.7307-8.7893-2.7307-3.4987-7.5947-3.4987-2.7307 0-4.864 1.1093-2.048 1.024-3.4987 2.7307-1.4507 1.7067-2.304 3.9253-0.768 2.2187-1.024 4.5227z"/>
   </g>
  </g>
 </g>
</svg>
