<?xml version="1.0" encoding="UTF-8"?>
<!-- Created with Inkscape (http://www.inkscape.org/) -->
<svg width="155mm" height="32mm" version="1.1" viewBox="0 0 155 32" xmlns="http://www.w3.org/2000/svg" xmlns:cc="http://creativecommons.org/ns#" xmlns:dc="http://purl.org/dc/elements/1.1/" xmlns:rdf="http://www.w3.org/1999/02/22-rdf-syntax-ns#">
 <metadata>
  <rdf:RDF>
   <cc:Work rdf:about="">
    <dc:format>image/svg+xml</dc:format>
    <dc:type rdf:resource="http://purl.org/dc/dcmitype/StillImage"/>
    <dc:title/>
   </cc:Work>
  </rdf:RDF>
 </metadata>
 <g transform="translate(0,-265)">
  <g transform="matrix(.26458 0 0 .26458 -11.339 59.342)" aria-label="HalcyonWeave">
   <path d="m94.279 853.11q0-4.032 1.344-10.368t3.552-13.536q-6.336 0.48-12.768 1.248-6.336 0.768-11.04 0.864-4.32 10.08-6.912 18.624-2.496 8.448-3.936 16.512-3.648-0.864-6.048-3.072-2.4-2.112-4.416-5.376 0.768-1.536 1.728-3.936 1.056-2.4 2.4-5.76 1.44-3.456 3.168-7.968 1.824-4.608 4.128-10.656-3.168-1.344-4.224-3.744 0.48-0.384 2.112-0.768 1.728-0.48 4.224-0.96l1.248-3.072q2.016-5.184 3.264-8.736 1.344-3.552 2.208-6.912 0.96-3.456 1.728-7.584 0.864-4.128 2.016-10.464 4.032 0.768 7.296 3.552 3.36 2.784 5.76 6.72-0.864 1.152-2.112 3.456t-2.784 5.568q-1.44 3.168-3.168 7.2-1.728 3.936-3.744 8.352 5.952-0.768 12-1.44 6.144-0.672 10.848-0.96 1.728-4.992 3.552-9.696 1.92-4.8 3.744-8.736t3.456-6.912q1.728-2.976 3.072-4.416 0.96 0.096 2.496 0.768 1.632 0.576 3.264 1.44t2.976 1.92q1.344 0.96 1.824 1.824-1.728 1.632-3.456 4.224t-3.456 5.952q-1.632 3.36-3.264 7.296t-3.072 8.16q1.92 1.728 1.92 4.32 0 1.824-0.768 3.36-0.864-0.192-1.728-0.192-0.864-0.096-1.824-0.192-1.632 5.184-2.976 10.272t-2.304 9.696q-0.864 4.608-1.44 8.448-0.48 3.84-0.48 6.432 0 0.96 0 1.536 0.096 0.576 0.192 0.96-2.112-0.096-3.072-0.768-0.96-0.576-1.44-1.344-0.48-0.672-0.864-1.44-0.384-0.672-1.248-1.056-0.672-0.288-1.248-1.344t-0.96-2.4-0.576-2.688-0.192-2.208z"/>
   <path d="m152.39 819.89q0.96 0 2.208 0.384 1.344 0.288 2.4 0.864 1.056 0.48 1.728 1.056 0.768 0.576 0.768 1.056-1.92 4.032-3.552 8.16-1.632 4.032-2.784 7.776t-1.824 7.008q-0.576 3.264-0.576 5.664 0 2.688 0.576 4.512 0.576 1.728 1.92 2.496-1.152 0.768-2.976 1.248t-3.264 0.48q-5.184 0-5.184-7.104 0-5.472 3.648-14.976-1.92 4.416-4.416 8.352-2.496 3.84-5.088 6.816t-5.28 4.896q-2.592 1.824-4.8 2.208-3.552-0.192-5.76-3.36-2.208-3.264-2.208-8.256 0-5.376 2.304-11.328t5.856-11.04q3.648-5.088 7.872-8.448 4.224-3.456 8.16-3.648 0.96 0.288 2.112 1.152 1.248 0.864 2.304 2.016 1.152 1.152 1.92 2.4 0.768 1.152 0.864 2.016-3.84 0.576-7.968 3.744-4.032 3.168-7.392 7.68-3.264 4.416-5.376 9.504t-2.112 9.504q0 1.824 1.344 2.304 2.784-0.576 6.432-4.704 3.648-4.224 8.832-12.96 0.96-1.728 2.112-3.84 1.248-2.112 2.496-4.416t2.4-4.608q1.248-2.4 2.304-4.608z"/>
   <path d="m164.36 852.53q0-4.224 2.016-11.808 2.016-7.68 5.664-17.856 5.952-16.224 11.136-26.976 5.28-10.848 10.272-16.896 1.152 0.192 2.784 0.96 1.728 0.768 3.36 1.728 1.632 0.864 2.88 1.824 1.344 0.96 1.728 1.536-7.488 8.832-13.152 19.008t-10.368 23.328q-4.032 11.328-6.144 20.448-2.112 9.024-2.112 15.072 0 1.632 0 2.016t0.096 0.768q-1.344-0.192-2.304-0.672t-1.248-1.152q-0.192-0.48-1.056-1.44-0.864-0.864-1.536-1.344-0.864-0.576-1.44-2.976-0.576-2.496-0.576-5.568z"/>
   <path d="m187.16 841.78q0-5.472 2.208-10.56 2.304-5.184 5.952-9.12 3.744-4.032 8.448-6.432 4.8-2.496 9.888-2.496 4.992 0 7.68 2.496t2.688 7.104q0 2.208-0.672 4.32-0.576 2.016-1.632 3.648-0.96 1.632-2.304 2.688-1.344 0.96-2.688 0.96-1.152 0-2.4-0.672-1.152-0.768-1.92-1.92 6.432-5.856 6.432-10.656 0-2.784-2.208-2.784-1.92 0-4.8 1.824t-5.568 4.8q-4.128 4.608-6.336 10.272-2.112 5.568-2.112 11.712 0 7.776 3.456 9.312 1.44-0.192 3.36-0.864t4.128-1.728q2.208-1.152 4.512-2.592 2.4-1.44 4.608-3.072 0.384 0.288 0.672 0.864t0.288 1.056q-1.632 2.016-3.744 3.936t-4.416 3.552q-2.304 1.536-4.512 2.592-2.112 1.152-3.744 1.44-3.168-0.288-5.952-2.016-2.784-1.632-4.896-4.32-2.016-2.688-3.264-6.144-1.152-3.456-1.152-7.2z"/>
   <path d="m262.99 843.8q-2.208 7.008-4.416 12.768t-4.704 10.56q-2.496 4.896-5.376 8.928-2.88 4.128-6.336 7.776-4.416 4.608-9.12 7.008-4.704 2.496-9.408 2.496-2.4 0-4.8-0.576-2.304-0.48-4.32-1.44-2.112-0.864-3.648-2.112-1.632-1.152-2.304-2.496 0-1.152 1.344-2.016 1.152 1.056 1.92 1.632t1.536 0.96q0.672 0.384 1.536 0.48 0.768 0.096 1.824 0.096 5.472 0 10.656-3.264 5.28-3.168 9.888-9.12 4.704-5.856 8.544-14.304 3.84-8.352 6.528-18.72-1.248 1.92-3.072 4.704t-4.032 5.568q-2.208 2.688-4.608 4.896-2.304 2.208-4.512 2.976-1.536-0.096-3.264-0.672-1.632-0.48-3.168-1.44-1.44-0.96-2.592-2.304t-1.536-3.072q0-2.784 0.192-4.416 0.192-1.728 0.672-3.744 0.864-3.648 2.496-8.256 1.728-4.608 3.936-9.024 2.304-4.512 4.992-8.352 2.784-3.936 5.76-6.144 0.768 0 1.92 0.192 1.152 0.096 2.4 0.48t2.4 0.96q1.152 0.48 2.016 1.344-1.056 0.96-4.608 6.432t-7.872 15.744q-0.48 1.056-1.152 3.072t-1.344 4.224q-0.576 2.208-1.056 4.32t-0.48 3.36q0 0.768 0.192 1.152 0.288 0.384 0.48 0.576 1.728-0.288 4.608-2.784 2.88-2.592 6.528-7.968 2.304-3.456 4.224-6.816 1.92-3.456 3.744-6.912 1.92-3.456 3.936-7.104t4.32-7.488q1.248 0 2.688 0.288t2.784 0.768q1.344 0.384 2.304 0.96 1.056 0.48 1.536 1.056-2.976 6.336-5.568 12.384t-4.608 12.384z"/>
   <path d="m285.1 862.04q-5.472-0.576-8.736-4.8t-3.264-10.752q0-3.84 1.152-7.968t3.264-7.968q2.112-3.936 4.992-7.392t6.24-5.952q5.28-3.936 9.888-3.936 3.072 1.632 6.048 6.816 0.48 0 0.864 0 0.384-0.096 0.864-0.096 5.088 0 5.088 9.024 0 6.048-2.016 11.52-1.92 5.376-5.472 9.792-3.456 4.416-8.352 7.488-4.8 2.976-10.56 4.224zm4.896-30.24q-1.632 2.208-3.072 4.8t-2.496 5.28q-1.056 2.592-1.632 5.088-0.576 2.4-0.576 4.32 0 2.304 0.768 4.416t1.728 2.4q4.32-0.96 7.872-3.552 3.648-2.688 6.24-6.624 2.688-3.936 4.128-8.928 1.536-4.992 1.536-10.656 0-2.496-0.288-3.936t-0.96-2.496q-4.224 1.248-7.584 4.032-3.264 2.784-5.664 5.856z"/>
   <path d="m331.69 812.12q2.496 0.768 4.704 3.456 2.208 2.592 3.264 5.76-1.056 2.592-3.264 6.24t-4.416 7.488q-2.208 3.744-4.032 7.2-1.728 3.36-2.016 5.568 1.536-1.632 3.36-3.744 1.92-2.208 3.648-4.32 1.824-2.208 3.36-3.936 1.536-1.824 2.4-2.688 1.824-1.92 4.32-4.416 2.496-2.592 5.184-4.8 2.784-2.304 5.568-3.84 2.784-1.632 5.088-1.632 2.496 0 4.128 1.728 1.728 1.632 2.688 3.456 0 0.192-0.768 0.576-0.672 0.288-2.016 1.824-1.344 1.728-3.072 4.8-1.632 2.976-3.264 6.528-1.536 3.456-2.592 7.104t-1.056 6.624q0 2.4 0.576 3.072 0.672 0.672 1.824 0.672 1.056 0 2.208-0.48t1.824-0.48q0.384 0.192 0.576 0.864 0.288 0.576 0.288 1.056-0.768 0.672-1.824 1.344t-2.208 1.248-2.304 0.96q-1.056 0.384-1.92 0.384-2.784 0-4.608-0.864-1.728-0.768-2.784-2.112-0.96-1.344-1.344-3.168-0.384-1.92-0.384-4.032 0-1.152 0.192-2.592t0.768-3.36q0.576-2.016 1.632-4.704 1.056-2.784 2.688-6.624-0.192 0-2.592 1.344t-5.184 4.128q-4.512 4.32-8.16 8.544-3.552 4.224-7.296 9.408-2.112 2.976-3.744 4.992-1.536 2.112-2.688 2.784-2.016-1.152-2.976-3.264-0.96-2.016-1.44-4.224 0-1.824 0.48-4.608 0.576-2.784 1.44-6.144 0.96-3.456 2.304-7.2t2.976-7.488q3.648-8.448 6.624-13.248 3.072-4.8 3.84-5.184z"/>
   <path d="m376.25 861.65q-0.48-3.936-0.768-8.544-0.192-4.704-0.192-8.736 0-6.432 0.384-12.288 0.48-5.952 1.056-12.384 0.672-6.528 1.44-14.112 0.768-7.68 1.344-17.664 1.248 0 3.552 0.768 2.4 0.672 4.8 1.632t4.224 2.016q1.824 0.96 2.112 1.632-1.632 3.744-2.976 9.888-1.248 6.048-2.112 13.248t-1.344 14.784-0.48 14.208q0 3.072 0.096 6.048t0.288 5.472q2.016-2.976 4.608-8.448 2.688-5.568 5.472-12.384 2.88-6.816 5.664-14.208 2.88-7.488 5.28-14.208 2.4-6.816 4.032-12.192 1.728-5.472 2.4-8.256 1.248 0 3.648 0.768 2.496 0.672 4.8 1.632 2.4 0.96 4.224 2.016 1.824 0.96 2.016 1.632-1.632 3.744-2.976 9.888-1.248 6.048-2.112 13.248t-1.344 14.784-0.48 14.208q0 2.784 0 5.568 0.096 2.688 0.288 4.896 3.072-7.968 6.336-15.744 3.36-7.872 6.624-14.976 3.264-7.2 6.336-13.344 3.072-6.24 5.664-11.04 2.592-4.896 4.512-8.064t2.976-4.224q2.208 0.288 4.512 1.632 2.4 1.248 4.224 3.264-2.784 2.208-6.336 7.296-3.552 4.992-7.296 11.616t-7.584 14.112q-3.744 7.488-7.008 14.592t-5.856 13.248q-2.496 6.144-3.84 9.888-2.496 1.152-4.896 1.152-3.072-0.384-5.856-1.536-2.688-1.152-3.84-2.784-0.288-1.536-0.48-3.552-0.192-2.112-0.288-4.128t-0.192-3.84q0-1.92 0-3.264 0-8.544 0.672-17.376 0.672-8.928 1.632-19.104-2.208 6.528-4.896 14.016t-5.664 14.88q-2.88 7.296-5.952 14.016-2.976 6.624-5.856 11.52-2.496 1.152-4.896 1.152-3.072-0.384-5.856-1.536-2.688-1.152-3.84-2.784z"/>
   <path d="m484.76 818.93q-0.384 5.952-2.112 10.272-1.728 4.224-4.992 7.488-3.168 3.168-7.776 5.76t-10.752 4.992q0 0.576-0.096 1.248 0 0.576 0 1.248 0 1.248 0.192 2.592t0.672 2.496 1.344 1.92q0.864 0.672 2.208 0.672 2.592 0 5.088-1.152t4.704-2.784q2.304-1.728 4.224-3.648 2.016-2.016 3.552-3.648 0.96 0.864 1.632 1.632-4.32 5.76-9.504 9.6-5.088 3.744-9.696 4.8-6.624-0.768-10.368-4.8-3.648-4.128-3.648-9.888 0-3.936 1.056-7.968 1.152-4.128 3.072-7.872 2.016-3.84 4.608-7.2 2.688-3.36 5.664-5.856 3.072-2.496 6.24-3.936 3.264-1.44 6.432-1.44 4.416 0.576 8.256 5.472zm-6.624 3.168q-2.592 0.384-5.376 2.112t-5.28 4.608q-2.4 2.88-4.416 6.72t-3.168 8.256q7.68-3.84 12.768-9.408 5.088-5.664 5.472-12.288z"/>
   <path d="m522.32 819.89q0.96 0 2.208 0.384 1.344 0.288 2.4 0.864 1.056 0.48 1.728 1.056 0.768 0.576 0.768 1.056-1.92 4.032-3.552 8.16-1.632 4.032-2.784 7.776t-1.824 7.008q-0.576 3.264-0.576 5.664 0 2.688 0.576 4.512 0.576 1.728 1.92 2.496-1.152 0.768-2.976 1.248t-3.264 0.48q-5.184 0-5.184-7.104 0-5.472 3.648-14.976-1.92 4.416-4.416 8.352-2.496 3.84-5.088 6.816t-5.28 4.896q-2.592 1.824-4.8 2.208-3.552-0.192-5.76-3.36-2.208-3.264-2.208-8.256 0-5.376 2.304-11.328t5.856-11.04q3.648-5.088 7.872-8.448 4.224-3.456 8.16-3.648 0.96 0.288 2.112 1.152 1.248 0.864 2.304 2.016 1.152 1.152 1.92 2.4 0.768 1.152 0.864 2.016-3.84 0.576-7.968 3.744-4.032 3.168-7.392 7.68-3.264 4.416-5.376 9.504t-2.112 9.504q0 1.824 1.344 2.304 2.784-0.576 6.432-4.704 3.648-4.224 8.832-12.96 0.96-1.728 2.112-3.84 1.248-2.112 2.496-4.416t2.4-4.608q1.248-2.4 2.304-4.608z"/>
   <path d="m538.55 824.69q0-1.728 0.192-3.264 0.288-1.536 1.056-2.592 0.768-1.152 2.112-1.728 1.344-0.672 3.552-0.672 1.344 0 2.976 0.288 1.728 0.288 2.496 1.056-0.384 1.632-0.672 2.88-0.192 1.248-0.384 2.784-0.096 1.44-0.192 3.552-0.096 2.016-0.192 5.28-0.192 6.528-0.672 11.712-0.384 5.088-1.92 10.176 0 0.384 0.288 0.384 1.44-1.056 3.264-3.072t3.84-4.512q2.016-2.592 4.032-5.472t3.744-5.664q2.304-4.032 5.088-10.08t4.608-12.96q0.576 0 1.44 0.288 0.96 0.192 1.824 0.576 0.96 0.288 1.632 0.672 0.768 0.384 1.056 0.672-0.192 4.128-2.016 8.448-1.728 4.32-4.224 8.352t-5.28 7.584-5.088 6.144q-4.608 5.376-9.312 9.6-4.608 4.224-11.04 8.16-2.496-0.96-3.936-2.592-1.44-1.536-1.44-3.264 0-1.152 0.48-2.592 0.576-1.536 1.248-3.84 0.672-2.4 1.152-5.952 0.576-3.552 0.576-9.024 0-3.168-0.192-6.336-0.096-3.264-0.096-4.992z"/>
   <path d="m610.57 818.93q-0.384 5.952-2.112 10.272-1.728 4.224-4.992 7.488-3.168 3.168-7.776 5.76t-10.752 4.992q0 0.576-0.096 1.248 0 0.576 0 1.248 0 1.248 0.192 2.592t0.672 2.496 1.344 1.92q0.864 0.672 2.208 0.672 2.592 0 5.088-1.152t4.704-2.784q2.304-1.728 4.224-3.648 2.016-2.016 3.552-3.648 0.96 0.864 1.632 1.632-4.32 5.76-9.504 9.6-5.088 3.744-9.696 4.8-6.624-0.768-10.368-4.8-3.648-4.128-3.648-9.888 0-3.936 1.056-7.968 1.152-4.128 3.072-7.872 2.016-3.84 4.608-7.2 2.688-3.36 5.664-5.856 3.072-2.496 6.24-3.936 3.264-1.44 6.432-1.44 4.416 0.576 8.256 5.472zm-6.624 3.168q-2.592 0.384-5.376 2.112t-5.28 4.608q-2.4 2.88-4.416 6.72t-3.168 8.256q7.68-3.84 12.768-9.408 5.088-5.664 5.472-12.288z"/>
  </g>
 </g>
</svg>
